<svg xmlns="http://www.w3.org/2000/svg" viewBox="0 0 60 60" width="512" height="512"><path d="M51 8.603v-.02l-.31-.295c-.142-.135-.289-.262-.434-.394A30.622 30.622 0 0 0 48 6.017l-.126-.094a30.103 30.103 0 0 0-1.069-.761l-.087-.059a29.593 29.593 0 0 0-2.389-1.451l-.08-.044a30.514 30.514 0 0 0-1.194-.612l-.112-.054a28.589 28.589 0 0 0-1.184-.536l-.164-.07c-.38-.159-.763-.31-1.15-.454l-.041-.016-.043-.017c-.05-.019-.101-.036-.151-.054-.364-.132-.73-.255-1.099-.373-.104-.033-.208-.068-.313-.1a28.262 28.262 0 0 0-1.043-.297c-.13-.035-.26-.072-.391-.105a29.626 29.626 0 0 0-.99-.229c-.153-.033-.306-.069-.46-.1a30.39 30.39 0 0 0-.949-.17c-.172-.029-.342-.061-.515-.086-.31-.046-.623-.083-.935-.119-.18-.021-.358-.046-.538-.064-.333-.033-.668-.055-1.003-.077-.161-.01-.32-.026-.481-.034C30.999.013 30.501 0 30 0s-.999.013-1.496.038c-.161.008-.32.024-.481.034-.335.022-.67.044-1.003.077-.181.018-.359.043-.538.064-.313.037-.625.073-.935.119-.173.026-.343.058-.515.086a30.39 30.39 0 0 0-.949.17c-.154.031-.307.067-.46.1-.331.072-.662.146-.99.229-.131.033-.261.07-.391.105-.349.093-.697.191-1.043.297-.105.032-.208.066-.313.1a28.4 28.4 0 0 0-1.099.373l-.151.054-.043.017-.041.016c-.386.144-.77.295-1.15.454l-.164.07a29.2 29.2 0 0 0-1.184.536l-.112.054c-.402.195-.8.399-1.194.612l-.08.044A30.694 30.694 0 0 0 13.279 5.1l-.087.059c-.361.245-.718.499-1.069.761l-.126.094c-.334.251-.662.51-.987.776l-.166.137c-.307.256-.609.518-.908.787l-.195.177c-.141.135-.289.262-.431.397L9 8.583v.02C3.451 14.05 0 21.628 0 30c0 16.542 13.458 30 30 30s30-13.458 30-30c0-8.372-3.451-15.95-9-21.397zM29.99 51.962l.006.008h-.016l.01-.008zm-7.98-11.52C24.086 38.245 26.955 37 30 37s5.914 1.245 7.99 3.442L30 50.452l-7.99-10.01zm17.231-1.567C36.805 36.404 33.505 35 30 35s-6.805 1.404-9.241 3.875l-9.354-11.718L20 20.28l9.014 7.212.002.097.304.148.54.399.154-.075.166.076.494-.396.326-.178v-.081l9-7.201 8.595 6.876-9.354 11.718zM11.181 9.284l.01-.008a28.125 28.125 0 0 1 5.462-3.885l.036-.019c.377-.204.759-.4 1.146-.588l.101-.048c.35-.168.705-.328 1.064-.482V18.52l-8 6.399V9.457c.061-.057.12-.117.181-.173zm10.66-6.068a28.673 28.673 0 0 1 2.223-.576c.153-.033.306-.068.461-.098.283-.056.568-.105.854-.153.167-.028.334-.058.502-.083.283-.042.569-.076.854-.109.17-.02.339-.043.509-.06.305-.03.613-.05.921-.07.151-.01.3-.024.452-.032.126-.006.255-.005.383-.01V24.92l-8-6.4V3.492c.169-.058.337-.118.508-.172l.333-.104zm9.994-1.149c.308.02.616.04.921.07.17.017.34.04.509.06.286.033.571.067.854.109.168.025.335.055.502.083.286.048.571.097.854.153.154.031.307.065.461.098.297.064.594.132.887.205.134.034.267.07.401.105.314.084.626.172.935.266l.333.104c.171.055.339.115.508.172V18.52l-8 6.4V2.025c.128.004.257.003.384.01.151.007.301.022.451.032zm10.331 2.717c.387.188.769.383 1.146.588l.036.019a28.125 28.125 0 0 1 5.462 3.885l.01.008c.06.056.119.116.18.173v15.462l-8-6.399V4.254c.359.154.714.314 1.065.482l.101.048zM30 58C14.561 58 2 45.439 2 30c0-7.083 2.648-13.555 7-18.491V27.35l20.012 25.07.005.201h.001v.011l.32.15.496.39.02-.009.007.005.154-.075.158.072.008-.006.018.008.468-.388.138-.076.195-.099v-.199L51 27.35V11.509c4.352 4.936 7 11.408 7 18.491 0 15.439-12.561 28-28 28z" fill="#D80027"/></svg>