<svg xmlns="http://www.w3.org/2000/svg" viewBox="0 0 470 470" width="512" height="512"><g fill="#D80027"><path d="M370.067 338.815a7.499 7.499 0 00-7.5 7.5V455H265c-4.143 0-7.5 3.357-7.5 7.5s3.357 7.5 7.5 7.5h105.067c4.143 0 7.5-3.357 7.5-7.5V346.315a7.5 7.5 0 00-7.5-7.5z"/><path d="M404.622 313.431l-27.632-66.315a7.5 7.5 0 00-6.923-4.615H99.933a7.5 7.5 0 00-6.923 4.615l-27.632 66.315a7.498 7.498 0 006.923 10.385h20.132V462.5c0 4.143 3.357 7.5 7.5 7.5H235c4.143 0 7.5-3.357 7.5-7.5v-175l13.209 31.701a7.5 7.5 0 006.923 4.615h135.067a7.497 7.497 0 006.24-3.34 7.496 7.496 0 00.683-7.045zM104.933 257.5H223.75l-21.382 51.315H83.551l21.382-51.315zm2.5 197.5V323.815h99.936a7.5 7.5 0 006.923-4.615l13.208-31.7V455H107.433zm160.199-146.185L246.25 257.5h118.817l21.382 51.315H267.632zm-82.546-133.69l4.147 16.685a7.5 7.5 0 007.278 5.69h76.977a7.5 7.5 0 007.278-5.69l4.147-16.685c27.688-17.216 44.756-47.747 44.756-80.455C329.67 42.469 287.201 0 235 0s-94.67 42.469-94.67 94.67c0 32.708 17.068 63.239 44.756 80.455zM235 15c43.93 0 79.67 35.74 79.67 79.67 0 28.44-15.335 54.926-40.021 69.119a7.499 7.499 0 00-3.54 4.692l-3.485 14.019h-65.248l-3.485-14.019a7.5 7.5 0 00-3.54-4.692c-24.686-14.193-40.021-40.679-40.021-69.119C155.33 50.74 191.07 15 235 15zm38.488 197.5h-76.977c-4.143 0-7.5 3.357-7.5 7.5s3.357 7.5 7.5 7.5h76.977c4.143 0 7.5-3.357 7.5-7.5s-3.357-7.5-7.5-7.5z"/><path d="M212.722 161.81a7.502 7.502 0 007.272 5.692c.599 0 1.208-.072 1.815-.224a7.5 7.5 0 005.469-9.088l-6.634-26.69h28.711l-6.634 26.69a7.5 7.5 0 005.469 9.088 7.52 7.52 0 001.815.224 7.501 7.501 0 007.272-5.692l8.948-36c.01-.039.014-.079.023-.118.033-.144.061-.29.086-.437.019-.114.038-.227.052-.34a8.545 8.545 0 00.055-.788c.001-.042.006-.084.006-.126 0-.059-.007-.116-.009-.175a6.925 6.925 0 00-.023-.456c-.009-.104-.021-.207-.033-.31a6.916 6.916 0 00-.224-1.101 7.011 7.011 0 00-.226-.673 7.885 7.885 0 00-.293-.657 7.395 7.395 0 00-.787-1.239 7.59 7.59 0 00-.483-.56 7.255 7.255 0 00-1.097-.948 8.178 8.178 0 00-.599-.383 6.907 6.907 0 00-.633-.324 7.715 7.715 0 00-.397-.166c-.092-.035-.183-.07-.277-.101a7.39 7.39 0 00-.452-.137c-.054-.015-.105-.035-.159-.048-.04-.01-.08-.014-.12-.023a8.478 8.478 0 00-1.114-.17 8.262 8.262 0 00-.47-.024c-.036 0-.071-.005-.106-.005h-47.896a7.499 7.499 0 00-7.278 9.31l8.951 35.999z"/></g></svg>