<svg xmlns="http://www.w3.org/2000/svg" viewBox="0 0 512 512"><path d="M175.027 336.781a113.73 113.73 0 0 1-14.124-17.163l12.421-12.421c-.119 17.482 1.703 29.584 1.703 29.584z" fill="#88acb5"/><path d="M304.95 304.955c-44.663 44.663-129.921 31.828-129.921 31.828 14.512 14.512 31.954 24.307 50.422 29.389l33.264 33.264s39.34-23.929 78.065-62.653l141.531-141.531c44.671-44.671 44.663-117.088 0-161.75 0 0 12.843 85.251-31.828 129.921L304.95 304.955z" fill="#5195af"/><path d="M478.308 33.5c-44.663-44.663-117.08-44.671-161.75 0L175.027 175.031l-32.13 98.555a113.654 113.654 0 0 0 18.007 46.031l1.568-1.568c2.96 6.986 7.13 13.304 12.556 18.73 15.739 15.739 39.053 20.943 63.999 16.622 24.945-4.321 51.553-18.166 73.881-40.494l141.53-141.529c44.67-44.669 55.356-106.392 23.87-137.878zm-41.162 120.588l-70.961 70.961-14.872 3.731-51.784 62.924-3.915 3.915c-10.607 10.607-24.715 16.439-39.714 16.447-14.999-.008-29.099-5.848-39.706-16.455-5.467-5.467-9.667-11.864-12.452-18.834a56.191 56.191 0 0 1-4.003-20.871c.008-14.999 5.848-29.099 16.455-39.706L357.728 74.67c10.607-10.607 24.707-16.447 39.706-16.455 15.007 0 29.107 5.84 39.714 16.447s16.447 24.707 16.447 39.714c-.009 14.998-5.842 29.105-16.449 39.712z" fill="#88acb5"/><path d="M330.805 260.432l35.38-35.38c-5.128-18.248-14.862-35.472-29.218-49.829.002-.001 6.614 43.905-6.162 85.209zM270.71 403.23l-75.273 75.273c-44.663 44.663-117.088 44.663-161.75 0 0 0 85.259 12.835 129.921-31.828l49.094-49.094 58.008 5.649z" fill="#ffbe35"/><path d="M336.967 336.971l-66.258 66.258a149.11 149.11 0 0 1-58.006-5.649l28.28-28.28c34.016 4.448 69.663-6.389 95.795-32.52l5.498-5.498a117.479 117.479 0 0 1-5.309 5.689z" fill="#f3a933"/><path d="M336.967 175.222c-44.662-44.663-117.079-44.671-161.749 0L33.687 316.753c-44.657 44.657-44.663 117.07-.017 161.734 15.755 15.756 39.069 20.96 64.014 16.639s51.553-18.166 73.881-40.494l53.814-53.814s-7.26-10.03-26.425-8.156l-44.678 44.678c-10.607 10.607-24.715 16.439-39.714 16.447-14.999-.008-29.099-5.848-39.706-16.455-10.607-10.607-16.447-24.707-16.455-39.706.008-14.999 5.848-29.099 16.455-39.706l141.531-141.53c10.607-10.607 24.707-16.447 39.706-16.455 15.007 0 29.107 5.84 39.714 16.447s16.447 24.707 16.447 39.714c-.008 13.137-4.488 25.59-12.724 35.608l54.363-54.363c3.747-24.244-1.577-46.77-16.926-62.119z" fill="#ffcd60"/><path d="M255.917 370.28l-30.539 30.539a148.216 148.216 0 0 1-26.425-8.156l26.497-26.497a115.012 115.012 0 0 0 30.467 4.114z" fill="#ffbe35"/></svg>