<svg xmlns="http://www.w3.org/2000/svg" viewBox="0 0 512 512"><path d="M423.351 78.094h-33.758l23.946 293.787h39.385V107.678c-.001-16.306-13.268-29.584-29.573-29.584z" fill="#a0f6fa"/><path d="M413.538 107.678c0-13.211-10.746-23.957-23.946-23.957v-5.626H122.407v5.626c-.155 0-.306.02-.46.024l.46-5.65H88.649c-16.305 0-29.572 13.278-29.572 29.583v264.203h354.462V107.678z" fill="#d0fbfd"/><path d="M423.346 66.846H88.654c-22.513 0-40.829 18.316-40.829 52.082v247.321h16.879v-11.247l5.626-11.935-5.626-11.935V107.675c0-13.206 10.744-23.95 23.95-23.95h334.694c13.206 0 23.95 10.744 23.95 23.95v258.574h16.879V107.675c-.001-22.513-18.317-40.829-40.831-40.829z" fill="#111449"/><path fill="#27467a" d="M464.176 355.002L512 445.024l-56.264 11.252-25.318-101.274z"/><path fill="#2f5e88" d="M478.242 445.024l-47.824-90.022H47.824L0 445.024l256 33.758z"/><path d="M281.394 419.699h-50.637a8.44 8.44 0 0 1 0-16.88h50.637a8.44 8.44 0 0 1 0 16.88zm196.848 25.325l-33.758 50.637h33.758c18.567 0 33.758-15.191 33.758-33.758v-16.879h-33.758z" fill="#111449"/><path d="M33.758 445.024H0v16.879c0 18.567 15.191 33.758 33.758 33.758h410.725c18.567 0 33.758-15.191 33.758-33.758v-16.879H33.758z" fill="#27467a"/><path d="M503.56 16.339h-45.011a8.436 8.436 0 0 0-8.44 8.44 8.443 8.443 0 0 0 8.44 8.44h24.632L307.853 208.547l-54.317-54.317c-3.297-3.297-8.642-3.297-11.928 0L64.703 331.135v23.867l182.868-182.868 54.317 54.317a8.429 8.429 0 0 0 11.928 0L495.121 45.146V69.79c0 4.659 3.781 8.44 8.44 8.44s8.44-3.781 8.44-8.44V24.779a8.437 8.437 0 0 0-8.441-8.44z" fill="#ff4719"/></svg>