<svg xmlns="http://www.w3.org/2000/svg" viewBox="0 0 512 512"><path d="M214.089 83.822V512c118.334 0 214.089-95.755 214.089-214.089S332.423 83.822 214.089 83.822z" fill="#e02e00"/><path d="M214.089 83.822C95.74 83.837 0 179.586 0 297.911 0 416.245 95.755 512 214.089 512c99.675 0 180.331-95.755 180.331-214.089S313.764 83.822 214.089 83.822z" fill="#ff4719"/><path d="M214.089 155.184v285.453c78.89 0 142.726-63.837 142.726-142.727s-63.836-142.726-142.726-142.726z" fill="#c7e7eb"/><path d="M214.089 155.184c-78.89 0-142.726 63.837-142.726 142.726S135.2 440.637 214.089 440.637c63.341 0 114.595-63.837 114.595-142.727S277.43 155.184 214.089 155.184z" fill="#e5fafc"/><path d="M214.089 226.548v142.727c39.444 0 71.363-31.918 71.363-71.363s-31.919-71.364-71.363-71.364z" fill="#c20035"/><path d="M214.089 226.548c-39.445 0-71.363 31.918-71.363 71.363s31.918 71.363 71.363 71.363c27.005 0 48.858-31.918 48.858-71.363s-21.852-71.363-48.858-71.363z" fill="#ff0f47"/><path fill="#367596" d="M464.255 0l-8.699 56.444-60.259 60.259 8.698-56.443z"/><path fill="#27467a" d="M512 47.745l-60.26 60.26-56.443 8.698 60.259-60.259z"/><path d="M214.095 306.345a8.44 8.44 0 0 1-5.967-14.407L457.545 42.519a8.44 8.44 0 0 1 11.936 11.936L220.062 303.874a8.416 8.416 0 0 1-5.967 2.471z" fill="#111449"/></svg>